<svg xmlns="http://www.w3.org/2000/svg" xmlns:xlink="http://www.w3.org/1999/xlink" width="500" zoomAndPan="magnify" viewBox="0 0 375 374.999991" height="500" preserveAspectRatio="xMidYMid meet" version="1.0"><defs><g/><clipPath id="8a7e522243"><path d="M 55.058594 55.058594 L 319.941406 55.058594 L 319.941406 319.941406 L 55.058594 319.941406 Z M 55.058594 55.058594 " clip-rule="nonzero"/></clipPath><clipPath id="bff2634d84"><path d="M 187.5 55.058594 C 114.355469 55.058594 55.058594 114.355469 55.058594 187.5 C 55.058594 260.644531 114.355469 319.941406 187.5 319.941406 C 260.644531 319.941406 319.941406 260.644531 319.941406 187.5 C 319.941406 114.355469 260.644531 55.058594 187.5 55.058594 Z M 187.5 55.058594 " clip-rule="nonzero"/></clipPath><clipPath id="de08845f35"><path d="M 55.058594 55.058594 L 319.808594 55.058594 L 319.808594 319.808594 L 55.058594 319.808594 Z M 55.058594 55.058594 " clip-rule="nonzero"/></clipPath><clipPath id="6ab8cae6ae"><path d="M 187.5 55.058594 C 114.355469 55.058594 55.058594 114.355469 55.058594 187.5 C 55.058594 260.644531 114.355469 319.9375 187.5 319.9375 C 260.644531 319.9375 319.9375 260.644531 319.9375 187.5 C 319.9375 114.355469 260.644531 55.058594 187.5 55.058594 Z M 187.5 55.058594 " clip-rule="nonzero"/></clipPath><clipPath id="5c8f85b08b"><path d="M 62.945312 62.945312 L 311.945312 62.945312 L 311.945312 311.945312 L 62.945312 311.945312 Z M 62.945312 62.945312 " clip-rule="nonzero"/></clipPath><clipPath id="669b1c776e"><path d="M 187.5 62.945312 C 118.710938 62.945312 62.945312 118.710938 62.945312 187.5 C 62.945312 256.289062 118.710938 312.050781 187.5 312.050781 C 256.289062 312.050781 312.050781 256.289062 312.050781 187.5 C 312.050781 118.710938 256.289062 62.945312 187.5 62.945312 Z M 187.5 62.945312 " clip-rule="nonzero"/></clipPath><clipPath id="eea9c507b5"><path d="M 101.554688 101.554688 L 273.304688 101.554688 L 273.304688 273.304688 L 101.554688 273.304688 Z M 101.554688 101.554688 " clip-rule="nonzero"/></clipPath><clipPath id="e62fabd787"><path d="M 187.5 101.554688 C 140.03125 101.554688 101.554688 140.03125 101.554688 187.5 C 101.554688 234.964844 140.03125 273.445312 187.5 273.445312 C 234.964844 273.445312 273.445312 234.964844 273.445312 187.5 C 273.445312 140.03125 234.964844 101.554688 187.5 101.554688 Z M 187.5 101.554688 " clip-rule="nonzero"/></clipPath><clipPath id="f64029114b"><path d="M 212 145.671875 L 221 145.671875 L 221 229.671875 L 212 229.671875 Z M 212 145.671875 " clip-rule="nonzero"/></clipPath><clipPath id="8b1d8f093b"><path d="M 233 173 L 254.679688 173 L 254.679688 202 L 233 202 Z M 233 173 " clip-rule="nonzero"/></clipPath><clipPath id="295998fa2b"><path d="M 154 145.671875 L 163 145.671875 L 163 229.671875 L 154 229.671875 Z M 154 145.671875 " clip-rule="nonzero"/></clipPath><clipPath id="adb8f3d9f0"><path d="M 120.429688 173 L 142 173 L 142 202 L 120.429688 202 Z M 120.429688 173 " clip-rule="nonzero"/></clipPath><clipPath id="3e8aa44dfc"><path d="M 65.472656 173.992188 L 104.636719 173.992188 L 104.636719 201.007812 L 65.472656 201.007812 Z M 65.472656 173.992188 " clip-rule="nonzero"/></clipPath><clipPath id="111a315f92"><path d="M 270.519531 173.992188 L 309.683594 173.992188 L 309.683594 201.007812 L 270.519531 201.007812 Z M 270.519531 173.992188 " clip-rule="nonzero"/></clipPath><clipPath id="0a3c65a5bc"><path d="M 177.847656 177.734375 L 197.347656 177.734375 L 197.347656 197.234375 L 177.847656 197.234375 Z M 177.847656 177.734375 " clip-rule="nonzero"/></clipPath></defs><g clip-path="url(#8a7e522243)"><g clip-path="url(#bff2634d84)"><path fill="#022b3a" d="M 55.058594 55.058594 L 319.941406 55.058594 L 319.941406 319.941406 L 55.058594 319.941406 Z M 55.058594 55.058594 " fill-opacity="1" fill-rule="nonzero"/></g></g><g clip-path="url(#de08845f35)"><g clip-path="url(#6ab8cae6ae)"><path stroke-linecap="butt" transform="matrix(0.75, 0, 0, 0.75, 55.060009, 55.060004)" fill="none" stroke-linejoin="miter" d="M 176.586666 -0.00188085 C 79.060618 -0.00188085 -0.00188685 79.060624 -0.00188685 176.586672 C -0.00188685 274.11272 79.060618 353.170017 176.586666 353.170017 C 274.112714 353.170017 353.170011 274.11272 353.170011 176.586672 C 353.170011 79.060624 274.112714 -0.00188085 176.586666 -0.00188085 Z M 176.586666 -0.00188085 " stroke="#022b3a" stroke-width="8" stroke-opacity="1" stroke-miterlimit="4"/></g></g><g clip-path="url(#5c8f85b08b)"><g clip-path="url(#669b1c776e)"><path stroke-linecap="butt" transform="matrix(0.75, 0, 0, 0.75, 62.94594, 62.945936)" fill="none" stroke-linejoin="miter" d="M 166.07209 -0.000831155 C 74.353334 -0.000831155 -0.000837155 74.35334 -0.000837155 166.072096 C -0.000837155 257.790852 74.353334 332.139816 166.07209 332.139816 C 257.790846 332.139816 332.13981 257.790852 332.13981 166.072096 C 332.13981 74.35334 257.790846 -0.000831155 166.07209 -0.000831155 Z M 166.07209 -0.000831155 " stroke="#1f7a8c" stroke-width="16" stroke-opacity="1" stroke-miterlimit="4"/></g></g><g clip-path="url(#eea9c507b5)"><g clip-path="url(#e62fabd787)"><path stroke-linecap="butt" transform="matrix(0.75, 0, 0, 0.75, 101.554092, 101.554088)" fill="none" stroke-linejoin="miter" d="M 114.594551 0.000799692 C 51.30288 0.000799692 0.000793692 51.302886 0.000793692 114.594557 C 0.000793692 177.88102 51.30288 229.188315 114.594551 229.188315 C 177.881014 229.188315 229.188309 177.88102 229.188309 114.594557 C 229.188309 51.302886 177.881014 0.000799692 114.594551 0.000799692 Z M 114.594551 0.000799692 " stroke="#1f7a8c" stroke-width="16" stroke-opacity="1" stroke-miterlimit="4"/></g></g><path fill="#1f7a8c" d="M 236.886719 219.613281 C 234.746094 219.613281 233.011719 217.878906 233.011719 215.734375 L 233.007812 159.1875 C 233.007812 157.042969 234.746094 155.308594 236.886719 155.308594 C 239.027344 155.308594 240.765625 157.042969 240.765625 159.1875 L 240.765625 215.734375 C 240.765625 217.878906 239.027344 219.613281 236.886719 219.613281 Z M 236.886719 219.613281 " fill-opacity="1" fill-rule="nonzero"/><path fill="#1f7a8c" d="M 226.828125 219.613281 C 224.6875 219.613281 222.953125 217.878906 222.953125 215.734375 L 222.949219 159.1875 C 222.949219 157.042969 224.683594 155.308594 226.828125 155.308594 C 228.96875 155.308594 230.707031 157.042969 230.707031 159.1875 L 230.707031 215.734375 C 230.707031 217.878906 228.96875 219.613281 226.828125 219.613281 Z M 226.828125 219.613281 " fill-opacity="1" fill-rule="nonzero"/><g clip-path="url(#f64029114b)"><path fill="#1f7a8c" d="M 216.769531 229.28125 C 214.625 229.28125 212.890625 227.546875 212.890625 225.402344 L 212.890625 149.519531 C 212.890625 147.375 214.625 145.640625 216.765625 145.640625 C 218.910156 145.640625 220.644531 147.375 220.644531 149.519531 L 220.648438 225.402344 C 220.648438 227.546875 218.910156 229.28125 216.769531 229.28125 Z M 216.769531 229.28125 " fill-opacity="1" fill-rule="nonzero"/></g><path fill="#1f7a8c" d="M 216.769531 197.15625 L 158.191406 197.15625 C 156.046875 197.15625 154.3125 195.421875 154.3125 193.28125 L 154.3125 181.648438 C 154.3125 179.503906 156.046875 177.765625 158.191406 177.765625 L 216.769531 177.765625 C 218.910156 177.765625 220.648438 179.5 220.648438 181.648438 L 220.648438 193.28125 C 220.648438 195.421875 218.910156 197.15625 216.769531 197.15625 Z M 162.066406 189.402344 L 212.890625 189.402344 L 212.890625 185.523438 L 162.066406 185.523438 Z M 162.066406 189.402344 " fill-opacity="1" fill-rule="nonzero"/><g clip-path="url(#8b1d8f093b)"><path fill="#1f7a8c" d="M 250.410156 201.039062 L 236.886719 201.039062 C 234.746094 201.039062 233.007812 199.304688 233.007812 197.160156 L 233.007812 177.757812 C 233.007812 175.613281 234.746094 173.878906 236.886719 173.878906 L 250.410156 173.878906 C 252.554688 173.878906 254.289062 175.613281 254.289062 177.757812 L 254.289062 197.160156 C 254.289062 199.304688 252.554688 201.039062 250.410156 201.039062 Z M 240.765625 193.28125 L 246.535156 193.28125 L 246.535156 181.632812 L 240.765625 181.632812 Z M 240.765625 193.28125 " fill-opacity="1" fill-rule="nonzero"/></g><path fill="#1f7a8c" d="M 138.070312 219.613281 C 135.925781 219.613281 134.191406 217.878906 134.191406 215.734375 L 134.191406 159.191406 C 134.191406 157.046875 135.925781 155.3125 138.070312 155.3125 C 140.214844 155.3125 141.949219 157.046875 141.949219 159.191406 L 141.949219 215.734375 C 141.949219 217.878906 140.210938 219.613281 138.070312 219.613281 Z M 138.070312 219.613281 " fill-opacity="1" fill-rule="nonzero"/><path fill="#1f7a8c" d="M 148.128906 219.613281 C 145.988281 219.613281 144.25 217.878906 144.25 215.734375 L 144.25 159.191406 C 144.25 157.046875 145.988281 155.3125 148.128906 155.3125 C 150.273438 155.3125 152.007812 157.046875 152.007812 159.191406 L 152.007812 215.734375 C 152.007812 217.878906 150.269531 219.613281 148.128906 219.613281 Z M 148.128906 219.613281 " fill-opacity="1" fill-rule="nonzero"/><g clip-path="url(#295998fa2b)"><path fill="#1f7a8c" d="M 158.191406 229.28125 C 156.046875 229.28125 154.3125 227.546875 154.3125 225.402344 L 154.308594 149.519531 C 154.308594 147.375 156.046875 145.640625 158.1875 145.640625 C 160.332031 145.640625 162.066406 147.375 162.066406 149.519531 L 162.066406 225.402344 C 162.066406 227.546875 160.332031 229.28125 158.191406 229.28125 Z M 158.191406 229.28125 " fill-opacity="1" fill-rule="nonzero"/></g><g clip-path="url(#adb8f3d9f0)"><path fill="#1f7a8c" d="M 138.070312 201.042969 L 124.546875 201.042969 C 122.402344 201.042969 120.667969 199.308594 120.667969 197.164062 L 120.667969 177.757812 C 120.667969 175.613281 122.402344 173.878906 124.546875 173.878906 L 138.070312 173.878906 C 140.214844 173.878906 141.949219 175.613281 141.949219 177.757812 L 141.949219 197.164062 C 141.949219 199.308594 140.210938 201.042969 138.070312 201.042969 Z M 128.421875 193.289062 L 134.191406 193.289062 L 134.191406 181.632812 L 128.421875 181.632812 Z M 128.421875 193.289062 " fill-opacity="1" fill-rule="nonzero"/></g><g clip-path="url(#3e8aa44dfc)"><path fill="#1f7a8c" d="M 65.472656 173.992188 L 104.621094 173.992188 L 104.621094 201.007812 L 65.472656 201.007812 Z M 65.472656 173.992188 " fill-opacity="1" fill-rule="nonzero"/></g><g clip-path="url(#111a315f92)"><path fill="#1f7a8c" d="M 270.519531 173.992188 L 309.667969 173.992188 L 309.667969 201.007812 L 270.519531 201.007812 Z M 270.519531 173.992188 " fill-opacity="1" fill-rule="nonzero"/></g><g clip-path="url(#0a3c65a5bc)"><path fill="#ffffff" d="M 197.304688 189.347656 L 197.304688 197.253906 L 193.347656 197.253906 L 193.347656 193.300781 L 181.804688 193.300781 L 181.804688 189.34375 L 197.304688 189.34375 Z M 177.847656 197.253906 L 181.804688 197.253906 L 181.804688 193.300781 L 177.847656 193.300781 Z M 181.804688 181.695312 L 181.804688 177.738281 L 177.847656 177.738281 L 177.847656 185.648438 L 193.347656 185.648438 L 193.347656 181.695312 Z M 193.347656 177.738281 L 193.347656 181.695312 L 197.304688 181.695312 L 197.304688 177.738281 Z M 193.347656 177.738281 " fill-opacity="1" fill-rule="nonzero"/></g><g fill="#ffffff" fill-opacity="1"><g transform="translate(120.851335, 272.833719)"><g><path d="M 15.03125 -2.9375 L 11.40625 2.34375 C 10.601562 3.519531 9.617188 4.207031 8.453125 4.40625 C 7.296875 4.601562 6.109375 4.28125 4.890625 3.4375 C 3.671875 2.601562 2.941406 1.609375 2.703125 0.453125 C 2.472656 -0.703125 2.757812 -1.867188 3.5625 -3.046875 L 7.1875 -8.328125 L 8.71875 -7.28125 L 5.09375 -2 C 4.570312 -1.25 4.378906 -0.507812 4.515625 0.21875 C 4.648438 0.957031 5.09375 1.582031 5.84375 2.09375 C 6.582031 2.601562 7.3125 2.785156 8.03125 2.640625 C 8.75 2.503906 9.367188 2.054688 9.890625 1.296875 L 13.515625 -3.984375 Z M 15.03125 -2.9375 "/></g></g></g><g fill="#ffffff" fill-opacity="1"><g transform="translate(138.482536, 283.912969)"><g><path d="M 10.03125 4.328125 L 8.359375 3.609375 L 6.125 -5.90625 L 3.015625 1.296875 L 1.3125 0.5625 L 5.65625 -9.484375 L 7.328125 -8.765625 L 9.578125 0.78125 L 12.703125 -6.4375 L 14.375 -5.71875 Z M 10.03125 4.328125 "/></g></g></g><g fill="#ffffff" fill-opacity="1"><g transform="translate(158.171729, 291.338486)"><g><path d="M 3.1875 0.8125 L 1.390625 0.359375 L 4.09375 -10.234375 L 5.890625 -9.78125 Z M 3.1875 0.8125 "/></g></g></g><g fill="#ffffff" fill-opacity="1"><g transform="translate(171.226944, 294.223622)"><g><path d="M 6.28125 0.625 L 4.390625 0.4375 L 1.125 -10.890625 L 3.09375 -10.6875 L 5.578125 -1.5 L 9.84375 -10.03125 L 11.765625 -9.84375 Z M 6.28125 0.625 "/></g></g></g><g fill="#ffffff" fill-opacity="1"><g transform="translate(190.766894, 295.343209)"><g><path d="M 8.484375 -9.984375 L 2.53125 -9.515625 L 2.765625 -6.578125 L 8.09375 -7 L 8.21875 -5.34375 L 2.890625 -4.921875 L 3.140625 -1.921875 L 9.28125 -2.40625 L 9.40625 -0.75 L 1.4375 -0.109375 L 0.578125 -11.015625 L 8.359375 -11.640625 Z M 8.484375 -9.984375 "/></g></g></g><g fill="#ffffff" fill-opacity="1"><g transform="translate(209.692697, 293.090097)"><g><path d="M 8.09375 -2.140625 L 5.3125 -4.84375 C 5.21875 -4.800781 5.054688 -4.75 4.828125 -4.6875 L 2.328125 -4.03125 L 3.171875 -0.84375 L 1.390625 -0.375 L -1.421875 -10.953125 L 2.859375 -12.078125 C 4.210938 -12.441406 5.347656 -12.40625 6.265625 -11.96875 C 7.179688 -11.539062 7.789062 -10.753906 8.09375 -9.609375 C 8.3125 -8.753906 8.304688 -7.984375 8.078125 -7.296875 C 7.859375 -6.617188 7.4375 -6.050781 6.8125 -5.59375 L 10.125 -2.6875 Z M 1.90625 -5.625 L 4.40625 -6.28125 C 6.125 -6.738281 6.796875 -7.679688 6.421875 -9.109375 C 6.054688 -10.472656 5.015625 -10.925781 3.296875 -10.46875 L 0.796875 -9.8125 Z M 1.90625 -5.625 "/></g></g></g><g fill="#ffffff" fill-opacity="1"><g transform="translate(228.869661, 287.121597)"><g><path d="M -0.09375 -12.109375 C 1.1875 -12.710938 2.5 -12.914062 3.84375 -12.71875 L 3.828125 -10.90625 C 2.535156 -11.050781 1.429688 -10.90625 0.515625 -10.46875 C 0.015625 -10.238281 -0.335938 -9.96875 -0.546875 -9.65625 C -0.753906 -9.34375 -0.78125 -9.019531 -0.625 -8.6875 C -0.476562 -8.351562 -0.21875 -8.132812 0.15625 -8.03125 C 0.53125 -7.925781 0.941406 -7.910156 1.390625 -7.984375 C 1.835938 -8.054688 2.332031 -8.117188 2.875 -8.171875 C 3.414062 -8.222656 3.925781 -8.25 4.40625 -8.25 C 4.882812 -8.25 5.34375 -8.113281 5.78125 -7.84375 C 6.226562 -7.582031 6.582031 -7.171875 6.84375 -6.609375 C 7.25 -5.742188 7.226562 -4.890625 6.78125 -4.046875 C 6.332031 -3.203125 5.554688 -2.519531 4.453125 -2 C 3.691406 -1.644531 2.890625 -1.445312 2.046875 -1.40625 C 1.203125 -1.363281 0.410156 -1.457031 -0.328125 -1.6875 L -0.28125 -3.46875 C 0.425781 -3.238281 1.140625 -3.140625 1.859375 -3.171875 C 2.578125 -3.203125 3.203125 -3.34375 3.734375 -3.59375 C 4.328125 -3.863281 4.734375 -4.179688 4.953125 -4.546875 C 5.179688 -4.910156 5.207031 -5.28125 5.03125 -5.65625 C 4.875 -6 4.609375 -6.222656 4.234375 -6.328125 C 3.859375 -6.441406 3.445312 -6.457031 3 -6.375 C 2.550781 -6.300781 2.0625 -6.234375 1.53125 -6.171875 C 1 -6.117188 0.488281 -6.082031 0 -6.0625 C -0.476562 -6.050781 -0.9375 -6.175781 -1.375 -6.4375 C -1.8125 -6.707031 -2.160156 -7.113281 -2.421875 -7.65625 C -2.816406 -8.5 -2.796875 -9.328125 -2.359375 -10.140625 C -1.929688 -10.953125 -1.175781 -11.609375 -0.09375 -12.109375 Z M -0.09375 -12.109375 "/></g></g></g><g fill="#ffffff" fill-opacity="1"><g transform="translate(245.291806, 278.640254)"><g><path d="M 2.265625 -12.90625 L -2.625 -9.484375 L -0.9375 -7.0625 L 3.453125 -10.125 L 4.40625 -8.765625 L 0.015625 -5.703125 L 1.734375 -3.234375 L 6.78125 -6.765625 L 7.734375 -5.40625 L 1.171875 -0.828125 L -5.09375 -9.796875 L 1.3125 -14.265625 Z M 2.265625 -12.90625 "/></g></g></g><g fill="#ffffff" fill-opacity="1"><g transform="translate(128.47028, 113.281036)"><g><path d="M 3.765625 -18.109375 L -2.609375 -13.6875 L -0.515625 -10.65625 L 5.34375 -14.71875 L 7.15625 -12.109375 L 1.296875 -8.046875 L 4.640625 -3.21875 L 1.3125 -0.90625 L -7.765625 -13.984375 L 1.9375 -20.71875 Z M 3.765625 -18.109375 "/></g></g></g><g fill="#ffffff" fill-opacity="1"><g transform="translate(144.389353, 103.105165)"><g><path d="M 5.109375 -2.390625 L 1.4375 -0.671875 L -5.3125 -15.09375 L -1.640625 -16.8125 Z M 5.109375 -2.390625 "/></g></g></g><g fill="#ffffff" fill-opacity="1"><g transform="translate(155.696058, 97.97636)"><g><path d="M 9.890625 -15.890625 L 5.265625 -14.609375 L 8.640625 -2.390625 L 4.734375 -1.3125 L 1.359375 -13.53125 L -3.21875 -12.265625 L -4.09375 -15.421875 L 9.015625 -19.046875 Z M 9.890625 -15.890625 "/></g></g></g><g fill="#ffffff" fill-opacity="1"><g transform="translate(173.788585, 93.299569)"><g><path d="M 16.265625 -0.78125 L 12.703125 -0.609375 L 4.921875 -10.0625 L 5.390625 -0.265625 L 1.59375 -0.078125 L 0.828125 -15.984375 L 4.40625 -16.15625 L 12.203125 -6.703125 L 11.734375 -16.515625 L 15.5 -16.6875 Z M 16.265625 -0.78125 "/></g></g></g><g fill="#ffffff" fill-opacity="1"><g transform="translate(196.369198, 92.894542)"><g><path d="M 16.109375 -10.015625 L 7.828125 -11.515625 L 7.265625 -8.40625 L 14.734375 -7.046875 L 14.15625 -3.90625 L 6.6875 -5.265625 L 6.125 -2.125 L 14.65625 -0.578125 L 14.078125 2.5625 L 1.5625 0.28125 L 4.421875 -15.375 L 16.6875 -13.140625 Z M 16.109375 -10.015625 "/></g></g></g><g fill="#ffffff" fill-opacity="1"><g transform="translate(216.09971, 97.046847)"><g><path d="M 13.28125 -11.9375 C 15.476562 -11.03125 17.1875 -9.679688 18.40625 -7.890625 L 15.796875 -5.5625 C 15.203125 -6.3125 14.519531 -7.015625 13.75 -7.671875 C 12.988281 -8.335938 12.3125 -8.789062 11.71875 -9.03125 C 10.644531 -9.476562 9.960938 -9.34375 9.671875 -8.625 C 9.472656 -8.164062 9.578125 -7.6875 9.984375 -7.1875 C 10.398438 -6.6875 10.945312 -6.171875 11.625 -5.640625 C 12.3125 -5.117188 12.976562 -4.5625 13.625 -3.96875 C 14.269531 -3.375 14.722656 -2.640625 14.984375 -1.765625 C 15.253906 -0.898438 15.1875 0.0195312 14.78125 1 C 14.195312 2.414062 13.1875 3.289062 11.75 3.625 C 10.3125 3.957031 8.742188 3.769531 7.046875 3.0625 C 5.816406 2.550781 4.691406 1.835938 3.671875 0.921875 C 2.648438 0.00390625 1.851562 -0.988281 1.28125 -2.0625 L 3.90625 -4.359375 C 4.394531 -3.410156 5.054688 -2.519531 5.890625 -1.6875 C 6.734375 -0.851562 7.546875 -0.273438 8.328125 0.046875 C 8.929688 0.296875 9.441406 0.382812 9.859375 0.3125 C 10.285156 0.238281 10.585938 -0.0078125 10.765625 -0.4375 C 10.929688 -0.84375 10.878906 -1.257812 10.609375 -1.6875 C 10.335938 -2.125 9.941406 -2.523438 9.421875 -2.890625 C 8.910156 -3.265625 8.363281 -3.703125 7.78125 -4.203125 C 7.195312 -4.710938 6.671875 -5.21875 6.203125 -5.71875 C 5.734375 -6.226562 5.425781 -6.851562 5.28125 -7.59375 C 5.132812 -8.332031 5.234375 -9.113281 5.578125 -9.9375 C 6.128906 -11.269531 7.109375 -12.117188 8.515625 -12.484375 C 9.921875 -12.847656 11.507812 -12.664062 13.28125 -11.9375 Z M 13.28125 -11.9375 "/></g></g></g><g fill="#ffffff" fill-opacity="1"><g transform="translate(233.922891, 104.97798)"><g><path d="M 15.484375 -8.90625 C 17.441406 -7.5625 18.828125 -5.890625 19.640625 -3.890625 L 16.609375 -2.140625 C 16.191406 -3.015625 15.675781 -3.851562 15.0625 -4.65625 C 14.445312 -5.457031 13.875 -6.039062 13.34375 -6.40625 C 12.382812 -7.0625 11.6875 -7.070312 11.25 -6.4375 C 10.96875 -6.019531 10.972656 -5.523438 11.265625 -4.953125 C 11.566406 -4.378906 12 -3.765625 12.5625 -3.109375 C 13.125 -2.460938 13.65625 -1.773438 14.15625 -1.046875 C 14.664062 -0.328125 14.957031 0.476562 15.03125 1.375 C 15.101562 2.269531 14.84375 3.15625 14.25 4.03125 C 13.375 5.289062 12.203125 5.9375 10.734375 5.96875 C 9.265625 6 7.769531 5.492188 6.25 4.453125 C 5.15625 3.703125 4.207031 2.773438 3.40625 1.671875 C 2.601562 0.566406 2.03125 -0.578125 1.6875 -1.765625 L 4.734375 -3.453125 C 5.003906 -2.429688 5.460938 -1.425781 6.109375 -0.4375 C 6.765625 0.550781 7.441406 1.289062 8.140625 1.78125 C 8.671875 2.144531 9.148438 2.332031 9.578125 2.34375 C 10.015625 2.351562 10.363281 2.171875 10.625 1.796875 C 10.875 1.429688 10.910156 1.007812 10.734375 0.53125 C 10.554688 0.0507812 10.25 -0.414062 9.8125 -0.875 C 9.382812 -1.34375 8.941406 -1.882812 8.484375 -2.5 C 8.023438 -3.125 7.617188 -3.726562 7.265625 -4.3125 C 6.910156 -4.894531 6.738281 -5.566406 6.75 -6.328125 C 6.769531 -7.085938 7.03125 -7.832031 7.53125 -8.5625 C 8.351562 -9.75 9.488281 -10.375 10.9375 -10.4375 C 12.394531 -10.507812 13.910156 -10 15.484375 -8.90625 Z M 15.484375 -8.90625 "/></g></g></g><g fill="#ffffff" fill-opacity="1"><g transform="translate(67.532433, 192.139382)"><g><path d="M 8.03125 -7.28125 L 3.21875 -7.28125 L 3.21875 -5.46875 L 7.5625 -5.46875 L 7.5625 -3.65625 L 3.21875 -3.65625 L 3.21875 -1.8125 L 8.171875 -1.8125 L 8.171875 0 L 0.90625 0 L 0.90625 -9.09375 L 8.03125 -9.09375 Z M 8.03125 -7.28125 "/></g></g></g><g fill="#ffffff" fill-opacity="1"><g transform="translate(76.291751, 192.139382)"><g><path d="M 4.40625 -9.203125 C 5.769531 -9.203125 6.96875 -8.863281 8 -8.1875 L 7.125 -6.390625 C 6.644531 -6.660156 6.128906 -6.882812 5.578125 -7.0625 C 5.035156 -7.238281 4.582031 -7.328125 4.21875 -7.328125 C 3.550781 -7.328125 3.21875 -7.109375 3.21875 -6.671875 C 3.21875 -6.378906 3.378906 -6.144531 3.703125 -5.96875 C 4.035156 -5.800781 4.4375 -5.65625 4.90625 -5.53125 C 5.375 -5.40625 5.84375 -5.253906 6.3125 -5.078125 C 6.789062 -4.898438 7.191406 -4.609375 7.515625 -4.203125 C 7.847656 -3.804688 8.015625 -3.304688 8.015625 -2.703125 C 8.015625 -1.828125 7.671875 -1.144531 6.984375 -0.65625 C 6.304688 -0.164062 5.4375 0.078125 4.375 0.078125 C 3.625 0.078125 2.878906 -0.0507812 2.140625 -0.3125 C 1.410156 -0.570312 0.769531 -0.925781 0.21875 -1.375 L 1.125 -3.15625 C 1.582031 -2.757812 2.117188 -2.429688 2.734375 -2.171875 C 3.359375 -1.921875 3.914062 -1.796875 4.40625 -1.796875 C 4.78125 -1.796875 5.070312 -1.863281 5.28125 -2 C 5.488281 -2.132812 5.59375 -2.332031 5.59375 -2.59375 C 5.59375 -2.84375 5.472656 -3.050781 5.234375 -3.21875 C 4.992188 -3.382812 4.695312 -3.507812 4.34375 -3.59375 C 3.988281 -3.675781 3.601562 -3.785156 3.1875 -3.921875 C 2.769531 -4.066406 2.382812 -4.21875 2.03125 -4.375 C 1.675781 -4.539062 1.378906 -4.800781 1.140625 -5.15625 C 0.898438 -5.519531 0.78125 -5.957031 0.78125 -6.46875 C 0.78125 -7.289062 1.109375 -7.953125 1.765625 -8.453125 C 2.429688 -8.953125 3.3125 -9.203125 4.40625 -9.203125 Z M 4.40625 -9.203125 "/></g></g></g><g fill="#ffffff" fill-opacity="1"><g transform="translate(84.661181, 192.139382)"><g><path d="M 7.859375 -7.234375 L 5.125 -7.234375 L 5.125 0 L 2.8125 0 L 2.8125 -7.234375 L 0.09375 -7.234375 L 0.09375 -9.109375 L 7.859375 -9.109375 Z M 7.859375 -7.234375 "/></g></g></g><g fill="#ffffff" fill-opacity="1"><g transform="translate(92.601744, 192.139382)"><g><path d="M 0.90625 -9.09375 L 4.828125 -9.09375 C 6.253906 -9.09375 7.414062 -8.671875 8.3125 -7.828125 C 9.207031 -6.992188 9.65625 -5.898438 9.65625 -4.546875 C 9.65625 -3.203125 9.195312 -2.109375 8.28125 -1.265625 C 7.375 -0.421875 6.191406 0 4.734375 0 L 0.90625 0 Z M 3.21875 -7.25 L 3.21875 -1.84375 L 4.875 -1.84375 C 5.582031 -1.84375 6.164062 -2.09375 6.625 -2.59375 C 7.082031 -3.09375 7.3125 -3.738281 7.3125 -4.53125 C 7.3125 -5.332031 7.070312 -5.984375 6.59375 -6.484375 C 6.113281 -6.992188 5.503906 -7.25 4.765625 -7.25 Z M 3.21875 -7.25 "/></g></g></g><g fill="#ffffff" fill-opacity="1"><g transform="translate(273.61383, 192.225655)"><g><path d="M 3.984375 -9.203125 C 4.890625 -9.203125 5.628906 -8.984375 6.203125 -8.546875 C 6.785156 -8.109375 7.078125 -7.535156 7.078125 -6.828125 C 7.078125 -5.972656 6.507812 -4.960938 5.375 -3.796875 L 3.515625 -1.828125 L 7.359375 -1.828125 L 7.359375 0 L 0.546875 0 L 0.546875 -1.5 L 3.796875 -4.9375 C 4.378906 -5.539062 4.671875 -6.0625 4.671875 -6.5 C 4.671875 -6.757812 4.578125 -6.960938 4.390625 -7.109375 C 4.210938 -7.253906 3.960938 -7.328125 3.640625 -7.328125 C 2.890625 -7.328125 2.0625 -6.941406 1.15625 -6.171875 L 0.28125 -7.84375 C 1.5 -8.75 2.734375 -9.203125 3.984375 -9.203125 Z M 3.984375 -9.203125 "/></g></g></g><g fill="#ffffff" fill-opacity="1"><g transform="translate(281.411194, 192.225655)"><g><path d="M 4.578125 -9.171875 C 5.867188 -9.171875 6.859375 -8.769531 7.546875 -7.96875 C 8.242188 -7.175781 8.59375 -6.039062 8.59375 -4.5625 C 8.59375 -3.070312 8.242188 -1.925781 7.546875 -1.125 C 6.859375 -0.332031 5.867188 0.0625 4.578125 0.0625 C 3.273438 0.0625 2.273438 -0.332031 1.578125 -1.125 C 0.878906 -1.925781 0.53125 -3.070312 0.53125 -4.5625 C 0.53125 -6.039062 0.878906 -7.175781 1.578125 -7.96875 C 2.273438 -8.769531 3.273438 -9.171875 4.578125 -9.171875 Z M 4.578125 -7.484375 C 3.984375 -7.484375 3.554688 -7.253906 3.296875 -6.796875 C 3.035156 -6.347656 2.90625 -5.601562 2.90625 -4.5625 C 2.90625 -3.519531 3.035156 -2.769531 3.296875 -2.3125 C 3.554688 -1.851562 3.984375 -1.625 4.578125 -1.625 C 5.148438 -1.625 5.566406 -1.851562 5.828125 -2.3125 C 6.097656 -2.78125 6.234375 -3.53125 6.234375 -4.5625 C 6.234375 -5.59375 6.097656 -6.335938 5.828125 -6.796875 C 5.566406 -7.253906 5.148438 -7.484375 4.578125 -7.484375 Z M 4.578125 -7.484375 "/></g></g></g><g fill="#ffffff" fill-opacity="1"><g transform="translate(290.547104, 192.225655)"><g><path d="M 3.984375 -9.203125 C 4.890625 -9.203125 5.628906 -8.984375 6.203125 -8.546875 C 6.785156 -8.109375 7.078125 -7.535156 7.078125 -6.828125 C 7.078125 -5.972656 6.507812 -4.960938 5.375 -3.796875 L 3.515625 -1.828125 L 7.359375 -1.828125 L 7.359375 0 L 0.546875 0 L 0.546875 -1.5 L 3.796875 -4.9375 C 4.378906 -5.539062 4.671875 -6.0625 4.671875 -6.5 C 4.671875 -6.757812 4.578125 -6.960938 4.390625 -7.109375 C 4.210938 -7.253906 3.960938 -7.328125 3.640625 -7.328125 C 2.890625 -7.328125 2.0625 -6.941406 1.15625 -6.171875 L 0.28125 -7.84375 C 1.5 -8.75 2.734375 -9.203125 3.984375 -9.203125 Z M 3.984375 -9.203125 "/></g></g></g><g fill="#ffffff" fill-opacity="1"><g transform="translate(298.344468, 192.225655)"><g><path d="M 2.75 -3.75 L 4.671875 -3.75 L 4.671875 -5.703125 L 6.8125 -5.703125 L 6.8125 -3.75 L 8.046875 -3.75 L 8.046875 -2 L 6.8125 -2 L 6.8125 0 L 4.671875 0 L 4.671875 -2 L 0.34375 -2 L 0.34375 -3.546875 L 3.21875 -9.09375 L 5.453125 -9.09375 Z M 2.75 -3.75 "/></g></g></g></svg>